# xmcd CD database file
#
# Track frame offsets:
#	150
#	17776
#	35328
#	53266
#	66660
#	85891
#	109211
#	128414
#	146808
#	163645
#	191390
#	209559
#	224958
#	240666
#	260800
#
# Disc length: 3766 seconds
#
# Revision: 2
# Processed by: cddbd v1.5.2PL0 Copyright (c) Steve Scherf et al.
# Submitted via: CDex 1.70beta2
#
DISCID=e40eb40f
DTITLE=Will Smith - Willennium
DYEAR=1999
DGENRE=R&B
TTITLE0=I'm Comin'
TTITLE1=Will 2K
TTITLE2=Freakin' It
TTITLE3=Da Butta
TTITLE4=La Fiesta
TTITLE5=Afro Angel
TTITLE6=So Fresh
TTITLE7=Pump Me Up
TTITLE8=Can You Feel Me?
TTITLE9=Potnas 
TTITLE10=Who Am I
TTITLE11=No More
TTITLE12=Uuhhh
TTITLE13=Wild Wild West
TTITLE14=The Rain
EXTD=YEAR: 1999
EXTT0=
EXTT1=
EXTT2=
EXTT3=
EXTT4=
EXTT5=
EXTT6=
EXTT7=
EXTT8=
EXTT9=
EXTT10=
EXTT11=
EXTT12=
EXTT13=
EXTT14=
PLAYORDER=
